<?xml version="1.0" standalone="no"?>
<!DOCTYPE svg PUBLIC "-//W3C//DTD SVG 20010904//EN"
 "http://www.w3.org/TR/2001/REC-SVG-20010904/DTD/svg10.dtd">
<svg version="1.0" xmlns="http://www.w3.org/2000/svg"
 width="893.000000pt" height="1280.000000pt" viewBox="0 0 893.000000 1280.000000"
 preserveAspectRatio="xMidYMid meet">
<metadata>
Created by potrace 1.15, written by Peter Selinger 2001-2017
</metadata>
<g transform="translate(0.000000,1280.000000) scale(0.100000,-0.100000)"
fill="#000000" stroke="none">
<path d="M3019 12681 c-61 -63 -89 -137 -89 -235 0 -40 7 -92 15 -117 18 -53
79 -135 117 -157 27 -16 28 -16 73 28 25 25 59 72 75 104 25 50 30 71 30 135
0 63 -5 86 -29 138 -32 67 -104 153 -129 153 -9 0 -37 -22 -63 -49z"/>
<path d="M7246 12533 c-3 -10 -16 -56 -30 -103 -33 -108 -206 -872 -206 -906
0 -2 -9 -4 -20 -4 -31 0 -95 -36 -118 -65 -30 -38 -44 -89 -40 -142 l3 -45
-237 -180 c-131 -98 -238 -181 -238 -184 0 -12 21 -44 30 -44 5 0 120 72 256
161 223 145 250 159 271 150 16 -8 23 -17 19 -29 -13 -46 -46 -257 -42 -269 3
-7 16 -13 30 -13 22 0 26 8 56 133 35 143 42 157 72 157 38 0 99 44 126 89 19
32 26 59 27 100 l1 55 310 215 c600 417 1234 890 1234 922 0 25 -45 5 -195
-85 -197 -117 -693 -450 -1110 -744 -159 -113 -295 -208 -300 -213 -6 -4 -18
-2 -28 6 -16 12 -15 21 17 171 83 384 155 780 156 857 0 20 -5 27 -19 27 -11
0 -22 -8 -25 -17z m-202 -1166 c22 -16 18 -55 -6 -71 -40 -24 -80 44 -42 71
10 7 21 13 24 13 3 0 14 -6 24 -13z"/>
<path d="M2784 12358 c3 -39 8 -74 10 -76 3 -2 14 -1 26 3 18 6 21 12 16 37
-3 17 -6 48 -6 69 0 35 -2 39 -26 39 l-27 0 7 -72z"/>
<path d="M3346 12408 c-3 -13 -7 -44 -10 -70 -5 -41 -3 -48 15 -53 11 -4 23
-5 25 -2 3 3 8 37 11 76 6 68 5 71 -15 71 -14 0 -23 -8 -26 -22z"/>
<path d="M2511 12381 c-11 -7 -12 -20 -1 -75 10 -54 16 -66 31 -66 27 0 30 16
16 84 -13 61 -22 72 -46 57z"/>
<path d="M3625 12368 c-27 -121 -27 -128 4 -128 14 0 21 15 33 68 13 60 13 68
-1 74 -26 11 -30 9 -36 -14z"/>
<path d="M1545 12265 c-48 -163 35 -341 189 -410 28 -13 69 -25 91 -27 39 -3
40 -2 54 37 7 22 14 76 15 120 0 67 -4 89 -26 137 -46 99 -159 184 -263 195
l-44 5 -16 -57z"/>
<path d="M3905 12308 c-38 -105 -43 -127 -28 -132 27 -11 31 -6 49 47 9 28 19
57 21 64 3 6 -5 17 -16 23 -16 8 -22 8 -26 -2z"/>
<path d="M4465 12291 c-155 -73 -234 -258 -180 -421 17 -52 18 -52 52 -47 47
8 150 57 190 91 18 15 47 57 65 94 30 60 33 76 33 152 0 47 -6 102 -13 123
-12 34 -17 37 -50 37 -20 0 -64 -13 -97 -29z"/>
<path d="M2227 12303 c-3 -5 4 -36 14 -70 15 -49 24 -63 39 -63 30 0 31 13 9
79 -16 45 -26 61 -39 61 -10 0 -21 -3 -23 -7z"/>
<path d="M1976 12207 c-19 -14 -19 -15 3 -68 28 -65 33 -71 54 -63 22 8 21 18
-11 87 -25 54 -28 57 -46 44z"/>
<path d="M4145 12153 c-23 -54 -26 -66 -14 -74 23 -14 31 -6 60 58 l27 61 -23
10 c-21 10 -24 6 -50 -55z"/>
<path d="M1478 11918 c-14 -12 -11 -20 27 -70 39 -52 44 -56 61 -43 18 12 17
16 -20 69 -42 61 -44 62 -68 44z"/>
<path d="M4625 11875 c-36 -53 -37 -56 -19 -69 17 -13 22 -9 60 42 31 42 40
60 32 69 -19 23 -34 14 -73 -42z"/>
<path d="M2860 11824 c0 -9 8 -18 18 -21 10 -3 35 -43 59 -94 l42 -89 -41 -89
c-26 -57 -47 -91 -59 -94 -11 -3 -19 -12 -19 -21 0 -12 10 -16 41 -16 36 0 40
2 37 23 -1 13 11 54 27 92 l29 69 33 -69 c22 -46 29 -73 23 -79 -22 -22 -10
-36 30 -36 33 0 40 3 40 20 0 11 -6 20 -12 20 -7 0 -31 40 -54 89 l-41 88 43
91 c23 51 47 92 53 92 6 0 11 9 11 20 0 17 -7 20 -40 20 -40 0 -52 -14 -30
-36 7 -7 0 -33 -21 -80 l-31 -69 -33 65 c-23 45 -32 73 -28 93 5 26 4 27 -36
27 -31 0 -41 -4 -41 -16z"/>
<path d="M3140 11820 c0 -11 5 -20 10 -20 6 0 10 -66 10 -179 0 -109 -4 -182
-10 -186 -24 -15 -9 -35 25 -35 34 0 49 20 25 35 -6 4 -10 77 -10 186 0 113 4
179 10 179 6 0 10 9 10 20 0 16 -7 20 -35 20 -28 0 -35 -4 -35 -20z"/>
<path d="M3220 11820 c0 -11 5 -20 10 -20 6 0 10 -68 10 -185 0 -117 -4 -185
-10 -185 -5 0 -10 -7 -10 -15 0 -11 11 -15 40 -15 29 0 40 4 40 15 0 8 -4 15
-10 15 -6 0 -10 68 -10 185 0 117 4 185 10 185 6 0 10 9 10 20 0 17 -7 20 -40
20 -33 0 -40 -3 -40 -20z"/>
<path d="M1258 11743 c-15 -17 -12 -22 33 -73 46 -50 50 -53 66 -38 15 15 14
19 -14 55 -17 21 -40 46 -50 56 -19 16 -20 16 -35 0z"/>
<path d="M4845 11705 c-26 -31 -46 -57 -44 -58 2 -2 11 -8 20 -15 13 -10 23
-3 62 42 44 51 45 54 28 70 -17 16 -21 13 -66 -39z"/>
<path d="M2153 11614 c-24 -17 -21 -44 6 -44 19 -1 195 -274 196 -305 1 -40
14 -47 45 -25 29 21 32 53 4 48 -17 -4 -198 279 -198 312 -1 30 -22 35 -53 14z"/>
<path d="M2096 11575 c-10 -8 -23 -16 -28 -17 -5 -2 -6 -11 -2 -21 3 -10 12
-16 19 -13 8 3 15 -19 23 -72 6 -42 9 -78 7 -80 -8 -8 -130 81 -130 96 0 24
-26 25 -54 3 -26 -20 -21 -41 11 -41 11 0 57 -24 102 -53 l82 -54 12 -99 c7
-63 8 -100 2 -102 -13 -5 -13 -29 0 -37 6 -3 24 3 40 15 l30 21 -19 27 c-11
16 -22 54 -26 91 l-6 63 38 -23 c73 -44 92 -60 87 -73 -9 -23 14 -28 46 -9 16
9 30 20 30 24 0 11 -26 29 -33 23 -3 -4 -44 17 -90 47 l-84 52 -13 98 c-6 54
-9 102 -6 107 7 11 -3 42 -13 42 -3 0 -15 -7 -25 -15z"/>
<path d="M4106 11561 c-4 -5 -4 -16 0 -24 7 -19 -180 -313 -197 -309 -11 3
-28 -14 -29 -28 0 -3 14 -14 31 -24 26 -15 33 -16 40 -5 5 8 7 21 4 29 -4 16
176 305 191 305 13 0 34 15 34 23 0 7 -53 42 -63 42 -3 0 -8 -4 -11 -9z"/>
<path d="M1056 11541 c-16 -18 -14 -21 39 -66 46 -39 58 -45 70 -35 8 7 15 15
15 19 0 3 -24 27 -54 53 -52 45 -54 46 -70 29z"/>
<path d="M5044 11510 c-43 -41 -49 -50 -38 -65 12 -16 15 -16 41 3 15 11 40
33 56 49 26 28 27 30 10 46 -17 15 -22 12 -69 -33z"/>
<path d="M880 11321 c-5 -11 -10 -22 -10 -24 0 -3 25 -22 56 -43 54 -37 56
-38 70 -20 8 11 13 20 11 21 -1 1 -28 21 -59 43 -54 40 -58 41 -68 23z"/>
<path d="M5225 11299 c-27 -21 -50 -43 -49 -49 2 -25 5 -30 14 -30 17 0 110
73 110 86 0 6 -6 16 -12 22 -9 7 -27 -1 -63 -29z"/>
<path d="M515 11247 c-39 -13 -40 -14 -40 -58 2 -94 86 -207 193 -257 49 -23
70 -27 147 -27 68 0 98 5 123 18 32 17 33 21 27 55 -18 102 -93 205 -179 250
-42 21 -67 26 -141 29 -54 1 -106 -3 -130 -10z"/>
<path d="M5418 11236 c-126 -52 -218 -170 -218 -281 0 -28 4 -33 38 -43 148
-44 295 -4 376 102 36 48 74 133 78 176 3 33 1 35 -42 52 -66 25 -162 23 -232
-6z"/>
<path d="M1317 10850 c-15 -25 -16 -31 -4 -36 8 -3 19 -4 25 -2 9 3 97 -121
90 -127 -8 -6 -157 18 -153 25 3 4 -3 11 -12 14 -17 7 -52 -27 -53 -50 0 -17
26 -24 38 -12 7 7 41 7 109 -2 l99 -12 53 -83 c28 -46 51 -92 49 -102 -5 -29
26 -25 45 6 14 24 14 31 3 40 -7 6 -16 8 -19 5 -3 -4 -24 22 -46 57 -22 35
-39 65 -37 67 2 2 32 0 66 -4 44 -5 68 -13 82 -28 l20 -21 24 30 c22 28 23 31
7 42 -11 9 -19 9 -23 3 -6 -9 -105 -1 -186 16 -22 4 -118 143 -126 180 -5 30
-32 27 -51 -6z"/>
<path d="M591 10821 c-9 -17 -3 -22 55 -47 55 -23 67 -25 75 -13 15 24 11 28
-47 54 -68 30 -71 30 -83 6z"/>
<path d="M4831 10831 c-7 -5 -11 -13 -7 -19 9 -14 -273 -216 -303 -217 -33 0
-36 -16 -10 -49 16 -21 24 -24 35 -15 7 6 12 16 11 21 -3 17 275 219 295 214
10 -2 22 2 28 9 15 18 -29 69 -49 56z"/>
<path d="M5493 10814 c-55 -26 -58 -30 -44 -53 8 -12 20 -10 75 13 58 25 64
30 55 47 -12 24 -22 23 -86 -7z"/>
<path d="M4879 10753 c-1 -5 -2 -14 -3 -20 -2 -19 -286 -222 -301 -216 -29 10
-36 -8 -15 -38 25 -34 40 -37 47 -9 7 27 287 232 307 224 22 -9 29 15 12 41
-15 23 -45 34 -47 18z"/>
<path d="M8328 10650 c-4 -19 -21 -182 -39 -361 -32 -316 -32 -327 -14 -345
17 -17 18 -46 11 -639 -6 -611 -14 -963 -23 -977 -2 -4 -20 -15 -39 -24 -41
-19 -74 -77 -74 -126 1 -49 34 -114 68 -132 16 -8 32 -21 34 -28 2 -7 2 -143
-1 -303 l-6 -290 -45 -23 c-60 -32 -89 -59 -111 -107 -62 -135 30 -290 186
-312 70 -9 132 13 187 68 74 74 87 157 41 250 -27 51 -47 70 -122 111 l-31 17
0 287 0 287 53 51 c59 56 69 84 55 151 -9 42 -26 62 -107 127 -11 9 -13 140
-9 794 l4 783 27 29 c35 36 35 49 -3 416 -37 360 -34 338 -42 296z m8 -2467
c4 -16 1 -30 -9 -40 -20 -21 -63 -10 -70 18 -3 12 2 28 13 39 24 24 58 15 66
-17z m53 -851 c49 -36 65 -69 65 -128 -2 -86 -55 -143 -141 -151 -98 -10 -173
56 -173 150 0 74 41 132 105 150 36 10 119 -2 144 -21z"/>
<path d="M497 10574 c-4 -4 -7 -15 -7 -25 0 -14 16 -23 63 -38 67 -20 77 -19
77 9 0 13 -14 23 -52 36 -29 9 -58 19 -64 21 -5 2 -13 0 -17 -3z"/>
<path d="M5603 10559 c-61 -19 -72 -30 -55 -56 6 -10 23 -8 73 8 35 12 65 23
66 23 5 4 -10 46 -16 45 -3 0 -34 -9 -68 -20z"/>
<path d="M416 10284 c-9 -23 -6 -24 64 -41 66 -15 80 -12 80 16 0 14 -13 21
-57 30 -73 14 -80 14 -87 -5z"/>
<path d="M5658 10288 c-47 -10 -56 -20 -40 -46 7 -9 21 -10 68 -1 68 14 77 19
68 42 -7 19 -25 20 -96 5z"/>
<path d="M7056 10238 c-21 -169 -28 -429 -28 -1109 l-1 -759 -32 -19 c-124
-73 -126 -248 -4 -323 l47 -30 7 -191 c4 -106 10 -241 14 -302 l6 -110 30 0
30 0 6 200 c4 110 7 248 8 306 l1 107 30 12 c42 17 87 72 100 121 22 81 -22
179 -94 213 l-36 17 0 432 c0 667 -17 1193 -46 1430 -8 61 -31 64 -38 5z m62
-2020 c34 -34 -6 -90 -48 -68 -35 19 -20 80 20 80 9 0 21 -5 28 -12z"/>
<path d="M370 10001 c0 -25 5 -27 82 -35 51 -5 57 -4 63 15 4 11 5 22 3 25 -2
2 -37 7 -76 10 -69 7 -72 6 -72 -15z"/>
<path d="M5682 10013 c-29 -4 -32 -7 -26 -26 3 -12 7 -23 8 -24 0 0 31 1 69 4
62 5 67 7 67 29 0 22 -4 24 -42 22 -24 0 -58 -3 -76 -5z"/>
<path d="M3005 9881 c-187 -84 -129 -361 75 -361 83 0 144 40 175 113 41 99 0
202 -100 248 -51 24 -99 24 -150 0z m105 -145 c6 -8 10 -25 8 -38 -2 -19 -9
-23 -38 -23 -29 0 -36 4 -38 23 -4 28 14 52 38 52 10 0 23 -7 30 -14z"/>
<path d="M970 9850 c0 -28 4 -40 14 -40 8 0 16 6 19 13 3 8 25 2 76 -23 l72
-34 -63 -33 c-44 -22 -71 -31 -90 -27 -26 5 -28 3 -28 -25 0 -17 0 -34 -1 -38
0 -5 7 -9 15 -11 9 -2 16 3 16 10 0 8 43 35 96 60 l95 47 89 -42 c61 -29 89
-47 90 -59 0 -11 8 -18 20 -18 17 0 20 7 20 41 0 40 -1 41 -27 36 -20 -4 -48
5 -91 27 l-64 32 69 32 c37 17 70 27 71 22 2 -6 12 -10 23 -10 16 0 19 7 19
40 0 33 -3 40 -20 40 -11 0 -20 -6 -20 -13 0 -7 -41 -31 -90 -54 l-90 -42 -95
45 c-52 25 -95 49 -95 55 0 5 -7 9 -15 9 -11 0 -15 -11 -15 -40z"/>
<path d="M232 9849 c-48 -15 -77 -33 -118 -73 -30 -29 -54 -59 -54 -68 0 -24
87 -97 150 -126 71 -33 141 -39 216 -17 91 26 204 110 204 150 0 20 -98 105
-146 127 -68 30 -174 33 -252 7z"/>
<path d="M5689 9841 c-57 -22 -109 -61 -144 -107 l-27 -36 48 -45 c74 -69 157
-105 245 -105 62 0 81 5 144 36 67 33 145 101 145 126 0 20 -86 96 -135 121
-68 33 -207 38 -276 10z"/>
<path d="M4750 9765 c0 -28 4 -35 20 -35 11 0 20 5 20 10 0 6 68 10 185 10
117 0 185 -4 185 -10 0 -5 9 -10 20 -10 16 0 20 7 20 35 0 28 -4 35 -20 35
-11 0 -20 -4 -20 -10 0 -6 -68 -10 -185 -10 -117 0 -185 4 -185 10 0 6 -9 10
-20 10 -16 0 -20 -7 -20 -35z"/>
<path d="M4757 9703 c-4 -3 -7 -19 -7 -35 0 -34 28 -50 42 -25 8 15 32 17 188
17 153 0 180 -2 180 -15 0 -8 9 -15 20 -15 17 0 20 7 20 40 0 33 -3 40 -20 40
-11 0 -20 -4 -20 -10 0 -6 -68 -10 -185 -10 -117 0 -185 4 -185 10 0 11 -23
14 -33 3z"/>
<path d="M968 9585 c3 -21 10 -35 18 -35 8 0 14 5 14 10 0 6 68 10 185 10 117
0 185 -4 185 -10 0 -5 9 -10 20 -10 16 0 20 7 20 35 0 28 -4 35 -20 35 -11 0
-20 -4 -20 -10 0 -6 -68 -10 -185 -10 -117 0 -185 4 -185 10 0 6 -8 10 -18 10
-15 0 -17 -6 -14 -35z"/>
<path d="M4757 9613 c-14 -13 -7 -64 10 -70 9 -4 19 -1 21 5 5 15 372 17 372
2 0 -5 9 -10 20 -10 17 0 20 7 20 40 0 29 -4 40 -15 40 -9 0 -18 -7 -21 -15
-5 -13 -35 -15 -185 -15 -150 0 -181 2 -185 15 -6 16 -26 20 -37 8z"/>
<path d="M430 9461 c-48 -5 -55 -9 -58 -30 -4 -24 -3 -24 68 -18 40 3 74 8 77
11 9 8 -8 46 -20 44 -7 -1 -37 -4 -67 -7z"/>
<path d="M5656 9447 c-3 -12 -4 -23 -2 -25 2 -1 36 -6 75 -9 68 -6 71 -5 71
16 0 25 -6 28 -82 34 -51 5 -57 3 -62 -16z"/>
<path d="M7716 9461 c-10 -15 -27 -574 -25 -825 l1 -219 -35 -18 c-78 -40
-119 -128 -98 -209 16 -59 51 -104 101 -127 32 -15 40 -23 41 -48 13 -250 14
-258 31 -269 35 -21 43 6 46 159 3 141 4 143 27 149 35 9 83 54 107 99 42 84
3 204 -80 243 l-38 19 -12 475 c-13 515 -18 573 -44 578 -9 2 -19 -1 -22 -7z
m52 -1203 c34 -34 -6 -90 -48 -68 -35 19 -20 80 20 80 9 0 21 -5 28 -12z"/>
<path d="M472 9185 c-63 -16 -65 -17 -55 -42 8 -19 11 -19 76 -5 60 13 68 18
65 36 -4 26 -18 28 -86 11z"/>
<path d="M5615 9179 c-4 -11 -5 -22 -3 -23 1 -2 33 -10 70 -18 65 -14 68 -14
74 4 8 26 6 27 -63 43 -74 18 -71 18 -78 -6z"/>
<path d="M4673 9074 c-15 -30 -15 -36 -3 -44 9 -6 17 -5 22 2 4 8 23 -3 55
-32 56 -50 203 -191 203 -194 0 -3 -232 56 -291 74 -23 6 -39 18 -42 30 -7 29
-24 25 -42 -10 -18 -36 -11 -54 18 -46 11 3 107 -17 212 -44 105 -28 197 -50
203 -50 32 0 0 38 -135 166 -82 76 -149 146 -151 155 -6 34 -32 30 -49 -7z"/>
<path d="M1475 9062 c-5 -4 -10 -12 -10 -18 0 -7 -64 -80 -143 -164 -101 -107
-140 -156 -133 -163 7 -7 69 8 206 52 108 35 202 60 209 58 26 -10 36 14 18
45 -9 15 -19 28 -22 28 -15 -1 -32 -19 -26 -28 4 -7 -51 -30 -150 -62 -87 -27
-159 -48 -161 -46 -2 2 47 58 109 124 73 79 116 118 123 112 6 -5 17 -5 24 -1
10 7 10 14 -3 40 -17 32 -24 36 -41 23z"/>
<path d="M550 8915 c-62 -21 -73 -35 -51 -58 4 -4 35 2 69 14 46 15 62 26 62
39 0 29 -10 29 -80 5z"/>
<path d="M5546 8923 c-11 -27 -6 -31 56 -52 76 -26 74 -26 81 -1 6 23 -6 31
-80 53 -46 14 -52 14 -57 0z"/>
<path d="M4536 8825 c-9 -13 -16 -28 -16 -34 0 -13 26 -21 36 -11 12 12 325
-162 320 -177 -4 -9 14 -23 30 -23 2 0 11 14 20 31 13 26 13 33 3 40 -7 4 -18
4 -24 -1 -14 -11 -323 160 -329 183 -6 24 -21 21 -40 -8z"/>
<path d="M1633 8823 c-7 -3 -13 -12 -13 -21 -1 -21 -291 -205 -311 -197 -8 3
-20 1 -28 -4 -11 -7 -10 -14 8 -40 21 -29 58 -34 47 -5 -6 17 279 198 314 199
14 0 26 6 27 15 4 20 -29 59 -44 53z"/>
<path d="M1673 8748 c-4 -7 -8 -17 -8 -23 0 -15 -289 -196 -306 -191 -34 8
-43 -10 -23 -43 10 -17 21 -31 24 -31 14 1 32 19 26 28 -9 14 282 197 310 194
32 -2 38 13 17 48 -19 33 -28 37 -40 18z"/>
<path d="M1723 8678 c-6 -7 -12 -19 -14 -25 -6 -19 -303 -206 -307 -194 -3 8
-9 8 -23 0 -19 -10 -19 -10 1 -40 25 -34 40 -37 47 -9 6 23 299 213 314 204 6
-3 17 -3 25 0 15 6 11 20 -18 59 -12 15 -16 16 -25 5z"/>
<path d="M639 8652 c-51 -24 -56 -29 -47 -48 l10 -22 57 25 c67 30 74 35 65
56 -8 22 -18 21 -85 -11z"/>
<path d="M5446 8663 c-8 -21 -4 -25 65 -56 l57 -25 10 23 c10 21 7 25 -49 49
-71 31 -75 31 -83 9z"/>
<path d="M749 8520 c-142 -24 -272 -158 -281 -290 l-3 -45 45 -12 c25 -6 79
-12 121 -12 66 -1 84 3 137 30 34 17 78 49 98 72 47 54 87 141 88 191 1 35 -2
40 -34 51 -51 17 -118 23 -171 15z"/>
<path d="M5267 8499 c-71 -17 -79 -25 -72 -72 32 -188 236 -321 419 -272 85
22 88 26 69 88 -38 131 -112 214 -221 247 -67 21 -132 24 -195 9z"/>
<path d="M2061 8356 c-7 -8 -8 -17 -3 -20 5 -3 -19 -94 -54 -203 -59 -181 -69
-230 -45 -221 5 2 77 67 159 146 83 78 156 141 163 140 7 -2 14 5 17 14 5 24
-51 53 -67 34 -7 -8 -7 -16 -1 -22 7 -7 -33 -50 -115 -128 -69 -65 -125 -114
-125 -109 0 5 24 78 53 163 36 107 57 155 67 155 27 0 21 30 -9 48 -24 14 -30
15 -40 3z"/>
<path d="M3961 8321 c-26 -20 -23 -58 3 -48 11 4 30 -34 76 -150 33 -86 59
-157 58 -158 -2 -2 -59 44 -128 101 -90 75 -125 110 -125 125 0 31 -17 33 -49
8 -21 -17 -24 -24 -15 -35 6 -8 15 -12 19 -9 5 3 77 -52 162 -121 84 -70 159
-131 166 -137 8 -6 16 -7 22 -1 6 6 -19 82 -69 207 -45 111 -75 199 -70 203 6
3 5 11 -2 20 -15 18 -19 17 -48 -5z"/>
<path d="M8689 8286 c-106 -60 -65 -228 54 -228 112 0 167 126 89 205 -36 35
-102 46 -143 23z"/>
<path d="M925 8175 c-56 -40 -62 -49 -45 -70 10 -12 21 -7 70 28 48 35 56 45
49 60 -13 23 -17 22 -74 -18z"/>
<path d="M2305 8200 c-3 -5 -3 -15 0 -20 10 -15 -185 -317 -204 -316 -27 2
-22 -29 8 -47 26 -15 30 -15 42 -1 9 11 10 18 2 22 -16 10 177 312 198 312 31
0 30 29 -1 45 -34 18 -37 18 -45 5z"/>
<path d="M5176 8194 c-3 -9 -6 -17 -6 -19 0 -1 24 -21 54 -43 40 -30 56 -38
65 -29 20 20 12 34 -42 71 -59 41 -63 42 -71 20z"/>
<path d="M2376 8154 c-3 -9 -4 -20 0 -25 9 -15 -177 -300 -203 -310 -30 -11
-29 -23 3 -44 31 -20 58 -13 49 14 -8 26 180 322 199 315 28 -11 25 25 -3 46
-35 24 -37 24 -45 4z"/>
<path d="M2900 8032 c0 -11 4 -22 9 -24 5 -1 32 -93 60 -202 28 -110 55 -204
61 -210 17 -17 25 5 76 208 26 108 53 196 62 203 22 18 9 38 -27 41 -34 3 -55
-23 -30 -39 13 -8 -3 -85 -64 -309 -9 -33 -12 -25 -53 130 -24 91 -43 168 -44
173 0 4 7 7 16 7 9 0 14 7 12 17 -2 12 -15 18 -41 21 -31 3 -37 0 -37 -16z"/>
<path d="M3192 8032 c-3 -8 2 -19 11 -24 15 -8 17 -32 17 -187 0 -150 -2 -180
-15 -185 -8 -3 -15 -12 -15 -21 0 -11 11 -15 40 -15 33 0 40 3 40 20 0 11 -4
20 -10 20 -15 0 -13 367 2 372 6 2 9 12 5 21 -8 21 -67 20 -75 -1z"/>
<path d="M1091 7952 c-51 -45 -52 -48 -35 -64 18 -15 22 -13 73 32 47 42 53
51 42 64 -8 9 -16 16 -20 16 -3 0 -30 -22 -60 -48z"/>
<path d="M5004 7983 c-9 -15 -2 -26 41 -65 50 -46 53 -47 69 -29 16 18 14 21
-36 65 -29 25 -55 46 -58 46 -3 0 -10 -8 -16 -17z"/>
<path d="M1288 7756 c-45 -51 -47 -54 -30 -70 17 -15 20 -14 48 17 65 70 68
75 54 92 -7 8 -15 15 -19 14 -3 0 -27 -24 -53 -53z"/>
<path d="M4816 7795 c-18 -14 -17 -17 29 -70 45 -53 48 -55 66 -39 17 16 16
18 -28 70 -26 30 -47 54 -47 54 -1 0 -10 -7 -20 -15z"/>
<path d="M4606 7624 c-18 -13 -17 -16 19 -69 39 -56 54 -65 73 -42 8 9 -1 27
-32 69 -38 51 -43 55 -60 42z"/>
<path d="M1502 7576 c-30 -40 -38 -56 -29 -65 6 -6 16 -11 22 -11 17 0 87 100
81 116 -10 26 -34 14 -74 -40z"/>
<path d="M1759 7576 c-140 -50 -232 -181 -231 -331 0 -84 24 -155 53 -155 34
0 126 37 173 69 115 80 161 234 116 394 -10 33 -14 37 -43 37 -18 -1 -48 -7
-68 -14z"/>
<path d="M4283 7553 c-12 -26 -18 -65 -18 -123 0 -73 4 -93 28 -142 52 -105
153 -183 256 -195 l48 -5 14 48 c8 27 14 83 14 124 -1 132 -68 230 -199 290
-33 16 -76 31 -94 35 -30 6 -33 4 -49 -32z"/>
<path d="M1986 7304 c-31 -67 -31 -70 -7 -83 17 -9 22 -3 47 55 23 55 25 67
13 75 -23 14 -26 12 -53 -47z"/>
<path d="M4131 7351 c-12 -8 -9 -20 14 -74 26 -61 29 -65 50 -55 l23 10 -27
61 c-29 64 -37 72 -60 58z"/>
<path d="M3036 7230 c-26 -24 -60 -67 -74 -95 -24 -45 -27 -61 -27 -155 0 -94
3 -110 26 -155 28 -52 104 -135 125 -135 18 0 100 92 125 141 16 31 24 67 27
124 5 109 -19 175 -97 258 l-58 61 -47 -44z"/>
<path d="M2241 7198 c-18 -58 -18 -64 -3 -75 9 -7 19 -13 22 -13 3 0 16 30 28
67 16 51 19 69 9 75 -26 17 -37 6 -56 -54z"/>
<path d="M3873 7254 c-8 -4 -5 -24 11 -72 19 -54 27 -66 42 -64 11 2 21 5 23
7 1 2 -7 33 -19 69 -20 62 -29 71 -57 60z"/>
<path d="M2510 7124 c-11 -55 -10 -68 1 -75 24 -15 33 -4 46 57 14 68 11 84
-16 84 -15 0 -21 -12 -31 -66z"/>
<path d="M3606 7182 c-5 -8 18 -130 26 -138 3 -2 14 -1 25 3 19 8 19 11 5 76
-12 52 -19 67 -33 67 -10 0 -20 -4 -23 -8z"/>
<path d="M2786 7104 c-12 -87 -9 -104 18 -104 22 0 24 5 29 68 3 37 4 68 4 68
-1 1 -11 4 -23 8 -19 6 -22 2 -28 -40z"/>
<path d="M3348 7143 c-14 -4 -16 -13 -12 -51 9 -81 13 -92 34 -92 16 0 20 7
20 38 0 49 -11 112 -19 111 -3 -1 -14 -3 -23 -6z"/>
<path d="M4820 6264 c-22 -20 -54 -66 -72 -102 -29 -59 -33 -76 -33 -147 1
-103 35 -183 106 -250 58 -54 66 -52 134 37 83 110 98 236 41 352 -27 55 -105
146 -126 146 -5 0 -28 -16 -50 -36z"/>
<path d="M4574 5994 c-6 -3 -10 -15 -8 -27 2 -12 6 -44 9 -70 6 -42 9 -48 28
-45 19 3 22 9 19 43 -6 98 -14 113 -48 99z"/>
<path d="M5137 5993 c-3 -5 -8 -38 -12 -75 -7 -67 -6 -68 18 -68 23 0 25 4 32
66 5 51 4 69 -7 75 -16 11 -26 11 -31 2z"/>
<path d="M4287 5943 c-2 -5 3 -36 11 -70 12 -56 16 -63 38 -63 27 0 27 1 15
50 -5 19 -12 47 -15 63 -6 25 -39 39 -49 20z"/>
<path d="M5407 5913 c-4 -21 -9 -53 -13 -70 -6 -30 -4 -33 18 -33 23 0 26 6
37 57 15 77 14 83 -13 83 -19 0 -24 -6 -29 -37z"/>
<path d="M3339 5859 c-9 -22 -14 -69 -14 -129 0 -83 4 -101 27 -145 54 -103
165 -184 259 -188 42 -2 43 -2 56 43 19 62 18 171 -2 230 -33 98 -163 202
-272 217 -37 5 -40 3 -54 -28z"/>
<path d="M6273 5869 c-74 -29 -146 -97 -185 -177 -29 -59 -33 -75 -32 -147 0
-52 7 -93 18 -119 17 -38 18 -38 59 -32 108 18 201 85 249 183 29 60 32 75 32
152 -1 110 -21 161 -61 160 -15 0 -51 -9 -80 -20z"/>
<path d="M4015 5870 c-4 -6 3 -39 15 -75 19 -56 24 -63 41 -56 11 4 21 9 22
11 1 3 -7 33 -17 68 -14 46 -24 62 -37 62 -10 0 -21 -5 -24 -10z"/>
<path d="M5670 5813 c-11 -36 -19 -67 -18 -69 2 -1 12 -4 23 -6 16 -2 24 9 42
61 19 51 21 66 11 73 -27 17 -38 6 -58 -59z"/>
<path d="M3752 5772 c-10 -7 -5 -24 19 -75 27 -59 33 -66 50 -57 24 13 24 11
-7 81 -26 58 -37 67 -62 51z"/>
<path d="M5933 5723 c-13 -32 -27 -61 -29 -64 -2 -3 7 -11 20 -17 22 -10 25
-7 51 55 23 54 26 66 14 74 -24 15 -29 11 -56 -48z"/>
<path d="M4331 5704 c0 -10 19 -170 42 -354 40 -318 44 -336 68 -360 20 -20
30 -51 52 -155 15 -72 34 -159 42 -195 26 -116 244 -1144 247 -1165 2 -14 -11
-33 -39 -58 -107 -97 -91 -258 31 -317 53 -25 53 -23 61 -185 4 -66 11 -122
16 -126 5 -3 18 -74 29 -157 l19 -152 -23 -35 c-30 -44 -41 -119 -26 -175 15
-55 79 -124 136 -146 32 -12 62 -15 108 -12 86 7 141 43 179 117 67 134 1 281
-140 312 -30 7 -56 17 -60 22 -3 5 -31 126 -63 270 l-59 262 39 33 c104 88 85
256 -35 314 l-45 22 0 300 c0 291 -13 662 -26 719 -3 17 -12 27 -23 27 -14 0
-20 -11 -25 -52 -3 -29 -6 -73 -6 -97 0 -24 -2 -42 -4 -40 -3 3 -19 135 -36
294 -17 160 -35 325 -41 367 -9 71 -8 81 12 120 l22 42 34 -69 c22 -43 31 -71
24 -73 -6 -2 -11 -12 -11 -23 0 -15 7 -19 35 -19 36 0 63 29 36 38 -6 2 -32
45 -57 94 l-45 91 45 93 c25 52 50 94 56 94 5 0 10 9 10 20 0 17 -7 20 -40 20
-33 0 -40 -3 -40 -19 0 -11 5 -21 11 -23 7 -2 -2 -30 -24 -73 l-34 -69 -32 61
c-23 46 -29 70 -25 92 6 31 6 31 -35 31 -33 0 -41 -3 -41 -19 0 -11 10 -22 23
-26 19 -6 19 -8 5 -12 -16 -4 -18 -22 -20 -181 -1 -97 -1 -188 0 -202 2 -38
60 -795 66 -870 7 -78 -110 413 -180 763 -25 123 -26 129 -9 147 10 11 18 32
17 47 -1 24 -207 651 -218 662 -2 2 -4 -4 -3 -15z m403 -451 c33 -69 33 -69
16 -104 -18 -34 -18 -34 -24 -9 -3 14 -10 54 -16 90 -6 36 -14 74 -17 85 -10
35 7 10 41 -62z m236 -2697 c0 -39 -6 -31 -14 19 -5 29 -4 36 3 25 6 -8 11
-28 11 -44z m191 -99 c127 -84 67 -280 -85 -281 -92 0 -156 55 -163 141 -3 33
1 59 14 83 39 75 162 105 234 57z"/>
<path d="M3267 5488 c-16 -12 -14 -18 24 -70 35 -50 43 -57 60 -48 10 6 19 14
19 17 0 6 -79 113 -83 113 -2 0 -11 -6 -20 -12z"/>
<path d="M6415 5444 c-35 -51 -37 -56 -22 -72 19 -18 16 -20 73 60 22 31 24
40 14 53 -7 8 -16 15 -20 15 -3 0 -24 -25 -45 -56z"/>
<path d="M4920 5390 c0 -11 7 -20 15 -20 13 0 15 -27 15 -185 0 -162 -2 -185
-16 -185 -9 0 -14 -7 -12 -17 2 -13 14 -19 41 -21 32 -3 37 0 37 17 0 12 -4
21 -10 21 -6 0 -10 68 -10 185 0 117 4 185 10 185 6 0 10 9 10 20 0 17 -7 20
-40 20 -33 0 -40 -3 -40 -20z"/>
<path d="M5010 5390 c0 -11 5 -20 10 -20 6 0 10 -68 10 -185 0 -117 -4 -185
-10 -185 -5 0 -10 -9 -10 -21 0 -17 5 -20 37 -17 27 2 39 8 41 21 2 10 -3 17
-12 17 -14 0 -16 23 -16 185 0 158 2 185 15 185 8 0 15 9 15 20 0 17 -7 20
-40 20 -33 0 -40 -3 -40 -20z"/>
<path d="M3041 5306 c-9 -11 -2 -25 38 -67 47 -52 50 -53 67 -37 18 17 16 20
-31 68 -54 55 -57 56 -74 36z"/>
<path d="M6631 5270 c-35 -42 -41 -53 -31 -65 19 -22 25 -19 70 35 35 42 40
53 30 65 -18 22 -23 20 -69 -35z"/>
<path d="M3950 5183 c-14 -9 -27 -18 -29 -19 -7 -6 21 -34 29 -29 14 9 202
-294 195 -315 -3 -10 -1 -21 5 -25 11 -7 70 24 70 37 0 8 -21 23 -34 23 -13 0
-195 286 -194 305 2 45 -5 49 -42 23z"/>
<path d="M3876 5136 c-28 -22 -29 -46 -2 -46 8 0 16 -26 22 -75 8 -61 7 -75
-3 -71 -30 12 -125 78 -119 83 3 3 1 12 -5 19 -9 11 -16 11 -41 -2 -32 -16
-36 -51 -5 -46 14 2 95 -42 179 -98 4 -4 14 -51 21 -105 12 -87 12 -101 0
-111 -13 -9 -13 -12 0 -23 13 -10 20 -9 41 4 29 19 33 40 12 52 -9 5 -17 35
-22 81 l-7 73 64 -41 c46 -30 63 -47 64 -63 0 -25 14 -25 51 0 19 12 22 19 13
29 -6 8 -18 14 -26 14 -8 0 -49 23 -92 50 -89 57 -90 59 -97 204 -2 44 -7 83
-12 88 -4 4 -20 -3 -36 -16z"/>
<path d="M5894 5125 c-3 -8 -3 -19 0 -24 10 -16 -181 -308 -205 -314 -27 -7
-21 -24 14 -45 23 -14 29 -15 36 -3 5 7 7 21 5 30 -4 19 179 307 194 304 5 -1
15 4 21 11 9 11 6 19 -18 35 -35 25 -40 26 -47 6z"/>
<path d="M2841 5106 c-10 -11 -2 -23 36 -60 51 -49 64 -54 82 -32 9 11 1 23
-40 60 -56 50 -61 53 -78 32z"/>
<path d="M6827 5073 c-43 -40 -47 -47 -34 -60 18 -18 38 -9 86 41 29 30 32 38
21 51 -7 8 -15 15 -19 15 -3 0 -28 -21 -54 -47z"/>
<path d="M2661 4883 c-7 -14 1 -25 47 -59 42 -31 60 -40 69 -32 23 19 14 34
-40 71 -61 42 -63 43 -76 20z"/>
<path d="M7001 4858 c-48 -37 -52 -42 -37 -56 18 -18 37 -11 96 37 29 25 32
31 21 45 -18 21 -18 21 -80 -26z"/>
<path d="M2305 4813 c-48 -17 -50 -19 -47 -53 10 -106 110 -229 217 -269 68
-26 172 -28 239 -5 47 16 48 17 41 53 -10 59 -60 156 -102 198 -58 58 -123 85
-218 89 -59 3 -93 0 -130 -13z"/>
<path d="M7239 4817 c-130 -37 -233 -153 -253 -284 l-6 -42 42 -13 c70 -21
205 -16 260 9 92 42 182 163 195 262 5 40 5 41 -33 57 -52 22 -148 27 -205 11z"/>
<path d="M3106 4419 c-20 -33 -17 -41 14 -43 23 -1 110 -126 88 -126 -57 1
-142 21 -154 37 -13 17 -15 17 -34 -6 -11 -13 -20 -29 -20 -37 0 -19 19 -27
34 -15 9 7 41 7 111 -2 l98 -12 52 -83 c32 -50 51 -90 48 -101 -9 -34 24 -32
46 2 l21 32 -23 9 c-20 7 -97 113 -97 132 0 3 12 3 28 0 15 -2 48 -8 75 -11
26 -3 45 -10 42 -15 -3 -5 3 -13 13 -19 15 -8 22 -4 36 20 19 32 13 54 -12 44
-8 -3 -59 0 -113 6 l-98 12 -53 85 c-29 47 -52 90 -50 95 3 9 -16 26 -28 27
-3 0 -14 -14 -24 -31z"/>
<path d="M2380 4391 c-10 -20 -6 -24 52 -50 57 -26 64 -27 76 -13 21 27 23 25
-105 79 -6 2 -17 -5 -23 -16z"/>
<path d="M6623 4403 c-7 -3 -13 -13 -13 -22 0 -19 -261 -215 -289 -217 -9 -1
-22 -2 -28 -3 -18 -1 -16 -22 5 -49 20 -25 54 -21 50 6 -3 17 277 226 292 217
10 -6 40 4 40 14 -1 15 -46 58 -57 54z"/>
<path d="M7288 4383 c-57 -26 -65 -36 -50 -61 13 -20 133 37 129 62 -3 29 -16
28 -79 -1z"/>
<path d="M6671 4321 c-7 -5 -11 -13 -7 -19 9 -15 -273 -216 -301 -214 -33 3
-37 -14 -12 -48 17 -23 26 -27 36 -19 7 6 13 17 13 24 0 20 286 225 297 214 6
-6 14 -4 22 5 10 12 9 20 -6 40 -20 28 -22 29 -42 17z"/>
<path d="M7393 4127 c-46 -15 -63 -26 -63 -38 0 -28 12 -29 76 -10 40 12 60
23 62 35 6 31 -11 34 -75 13z"/>
<path d="M2276 4124 c-3 -9 -6 -17 -6 -19 0 -2 30 -13 66 -25 55 -19 68 -20
75 -9 17 27 8 37 -49 53 -72 20 -78 20 -86 0z"/>
<path d="M2207 3863 c-4 -3 -7 -14 -7 -23 0 -23 128 -50 141 -29 15 24 4 33
-57 46 -72 15 -69 15 -77 6z"/>
<path d="M7455 3857 c-40 -10 -51 -17 -53 -35 -3 -17 1 -22 20 -21 37 2 119
23 119 32 -1 4 -1 14 -1 22 0 17 -16 18 -85 2z"/>
<path d="M2160 3566 c0 -18 5 -26 18 -26 9 0 41 -3 70 -6 51 -7 52 -6 52 20 0
21 -5 26 -24 26 -13 0 -44 3 -70 6 -45 7 -46 6 -46 -20z"/>
<path d="M7488 3583 c-39 -3 -48 -8 -48 -23 0 -28 14 -32 85 -25 60 7 65 9 65
31 0 26 5 25 -102 17z"/>
<path d="M2757 3453 c-4 -3 -7 -21 -7 -40 0 -26 4 -33 19 -33 11 0 21 5 23 11
4 11 138 -49 138 -61 0 -12 -139 -68 -143 -57 -2 6 -11 8 -20 4 -12 -4 -17
-18 -17 -42 0 -28 4 -35 20 -35 11 0 20 6 20 14 0 11 166 96 189 96 24 0 181
-83 181 -95 0 -8 9 -15 20 -15 17 0 20 7 20 41 0 41 0 41 -31 35 -22 -4 -46 2
-92 26 l-62 31 70 32 c39 17 72 28 73 23 2 -4 13 -8 23 -8 17 0 20 6 17 37 -2
27 -8 39 -20 41 -11 2 -18 -3 -18 -11 0 -8 -39 -32 -92 -57 l-93 -42 -92 46
c-51 25 -93 50 -93 56 0 11 -23 14 -33 3z"/>
<path d="M2054 3426 c-68 -17 -134 -57 -178 -107 l-35 -42 19 -24 c25 -33 86
-80 135 -106 32 -18 58 -22 130 -22 79 0 97 3 149 29 59 29 146 103 146 124 0
20 -61 82 -107 109 -46 27 -139 53 -183 52 -14 0 -48 -6 -76 -13z"/>
<path d="M7503 3416 c-66 -21 -128 -62 -163 -107 l-33 -40 44 -45 c24 -25 73
-59 109 -77 121 -60 255 -38 368 59 68 57 69 67 21 119 -60 65 -133 98 -228
102 -46 2 -93 -3 -118 -11z"/>
<path d="M6540 3330 c0 -33 3 -40 20 -40 11 0 20 7 20 15 0 13 27 15 185 15
158 0 185 -2 185 -15 0 -8 9 -15 20 -15 17 0 20 7 20 40 0 33 -3 40 -20 40
-11 0 -20 -4 -20 -10 0 -6 -68 -10 -185 -10 -117 0 -185 4 -185 10 0 6 -9 10
-20 10 -17 0 -20 -7 -20 -40z"/>
<path d="M6540 3240 c0 -33 3 -40 20 -40 11 0 20 5 20 10 0 6 68 10 185 10
117 0 185 -4 185 -10 0 -5 9 -10 20 -10 17 0 20 7 20 40 0 33 -3 40 -20 40
-11 0 -20 -7 -20 -15 0 -13 -27 -15 -185 -15 -158 0 -185 2 -185 15 0 8 -9 15
-20 15 -17 0 -20 -7 -20 -40z"/>
<path d="M2752 3153 c2 -27 8 -39 21 -41 10 -2 17 3 17 12 0 14 23 16 185 16
158 0 185 -2 185 -15 0 -8 9 -15 20 -15 17 0 20 7 20 40 0 33 -3 40 -20 40
-11 0 -20 -4 -20 -10 0 -6 -68 -10 -185 -10 -117 0 -185 4 -185 10 0 6 -9 10
-21 10 -17 0 -20 -5 -17 -37z"/>
<path d="M6540 3145 c0 -28 4 -35 20 -35 11 0 20 5 20 10 0 6 68 10 185 10
117 0 185 -4 185 -10 0 -5 9 -10 20 -10 16 0 20 7 20 35 0 28 -4 35 -20 35
-11 0 -20 -4 -20 -10 0 -6 -68 -10 -185 -10 -117 0 -185 4 -185 10 0 6 -9 10
-20 10 -16 0 -20 -7 -20 -35z"/>
<path d="M2183 3023 c-17 -3 -23 -11 -23 -29 0 -23 3 -24 43 -19 105 14 105
14 100 35 -4 17 -13 20 -52 19 -25 -1 -56 -4 -68 -6z"/>
<path d="M7440 3011 c0 -23 16 -29 90 -33 50 -3 55 -1 58 18 3 24 -27 34 -104
34 -37 0 -44 -3 -44 -19z"/>
<path d="M2325 2764 c-5 -1 -36 -8 -67 -14 -56 -11 -67 -21 -50 -47 10 -15
142 13 142 30 0 18 -14 34 -25 31z"/>
<path d="M7406 2762 c-14 -14 -4 -42 17 -47 63 -14 112 -24 113 -22 1 1 5 12
8 25 5 15 3 22 -6 22 -7 1 -39 7 -70 14 -31 8 -59 11 -62 8z"/>
<path d="M6458 2641 c-14 -26 -15 -31 -1 -42 12 -10 16 -10 23 1 6 10 41 -18
134 -106 69 -65 124 -119 123 -120 -1 -2 -75 16 -165 39 -126 33 -162 46 -162
58 0 31 -29 30 -46 -2 -12 -24 -13 -33 -3 -45 8 -9 16 -11 21 -6 6 6 88 -10
215 -43 158 -40 206 -49 210 -39 4 12 -38 55 -231 234 -32 30 -62 65 -67 78
-12 30 -31 28 -51 -7z"/>
<path d="M3262 2631 c-7 -4 -12 -13 -10 -18 2 -6 -53 -71 -122 -145 -69 -73
-134 -144 -144 -156 -40 -47 -4 -43 179 18 161 54 302 87 253 59 -9 -5 -15
-15 -13 -22 6 -16 -296 -207 -310 -196 -6 4 -17 4 -24 0 -23 -14 17 -73 44
-65 17 6 18 5 6 -10 -11 -13 -11 -20 3 -41 20 -30 34 -32 44 -5 10 26 304 212
316 200 6 -6 14 -5 23 1 10 9 10 17 -4 40 -18 30 -50 36 -46 9 2 -9 -54 -51
-149 -110 -83 -52 -154 -96 -158 -98 -4 -1 -11 8 -18 22 -10 23 -5 27 141 119
84 53 161 95 172 94 29 -3 24 20 -18 86 -26 40 -41 55 -52 51 -8 -4 -14 -13
-13 -22 2 -11 -36 -28 -159 -67 l-162 -52 26 31 c78 93 203 216 214 211 8 -3
20 -1 27 3 10 7 9 15 -5 40 -20 35 -22 36 -41 23z"/>
<path d="M2325 2481 c-39 -14 -49 -22 -47 -37 6 -28 7 -29 72 -9 66 20 73 25
64 49 -8 20 -26 19 -89 -3z"/>
<path d="M7334 2485 c-9 -22 1 -29 63 -49 56 -19 73 -15 73 13 0 12 -14 21
-47 30 -27 7 -56 15 -65 18 -11 3 -20 -1 -24 -12z"/>
<path d="M6324 2395 c-21 -32 -12 -57 18 -50 27 6 325 -156 321 -174 -2 -6 5
-15 15 -20 16 -8 22 -4 35 25 18 36 12 46 -23 41 -24 -3 -312 156 -317 175 -8
28 -32 29 -49 3z"/>
<path d="M2433 2222 c-35 -15 -63 -30 -63 -33 0 -3 6 -12 13 -21 11 -15 18
-14 74 12 52 24 61 31 56 49 -7 26 -5 26 -80 -7z"/>
<path d="M3503 2231 c-7 -29 -294 -211 -321 -204 -29 7 -33 -9 -10 -45 16 -26
23 -30 34 -21 7 6 12 16 11 21 -3 15 285 198 304 194 9 -2 23 0 30 5 12 7 12
13 -1 35 -19 35 -40 42 -47 15z"/>
<path d="M7235 2229 c-8 -25 -13 -20 59 -53 59 -26 75 -24 76 10 0 9 -108 64
-125 64 -2 0 -7 -9 -10 -21z"/>
<path d="M2484 2072 c-61 -21 -123 -65 -163 -116 -35 -43 -71 -134 -71 -175 0
-27 4 -30 53 -42 87 -22 183 -16 249 15 93 44 177 159 194 264 l6 41 -53 15
c-69 21 -151 20 -215 -2z"/>
<path d="M7072 2069 c-85 -14 -96 -23 -88 -75 11 -84 73 -176 156 -230 84 -54
215 -67 304 -30 37 15 38 18 33 52 -10 61 -62 159 -108 202 -70 68 -186 99
-297 81z"/>
<path d="M3846 1921 c-4 -5 -3 -16 0 -24 3 -8 -24 -104 -60 -212 -88 -267 -94
-267 169 -13 44 42 92 82 108 87 34 13 34 25 -2 50 -26 19 -30 19 -42 5 -10
-12 -10 -17 0 -23 8 -5 -29 -46 -114 -125 -69 -65 -125 -115 -125 -111 0 4 23
78 50 166 37 115 55 157 64 153 26 -10 30 19 6 38 -24 20 -46 23 -54 9z"/>
<path d="M5747 1886 c-25 -20 -26 -24 -12 -36 8 -7 19 -10 22 -6 4 4 24 -37
46 -91 73 -183 87 -224 74 -216 -50 30 -254 210 -247 217 9 9 2 36 -10 36 -4
0 -19 -9 -33 -20 -26 -21 -27 -53 -2 -48 7 2 85 -57 174 -130 95 -78 168 -132
176 -128 10 4 -4 48 -61 192 -42 103 -77 199 -79 213 -1 14 -3 29 -4 34 -2 12
-15 7 -44 -17z"/>
<path d="M2713 1742 c-61 -45 -59 -43 -46 -66 10 -18 14 -16 66 20 58 40 66
54 44 73 -11 8 -25 2 -64 -27z"/>
<path d="M4092 1768 c-7 -7 -8 -16 -3 -22 13 -15 -179 -316 -199 -313 -25 4
-22 -29 5 -47 21 -14 29 -15 41 -5 9 8 11 16 5 23 -12 15 179 318 196 312 23
-9 24 28 1 46 -27 21 -31 21 -46 6z"/>
<path d="M6963 1761 c-11 -18 -7 -24 44 -60 43 -30 60 -38 70 -29 7 6 13 14
13 19 0 8 -101 89 -111 89 -2 0 -10 -9 -16 -19z"/>
<path d="M4169 1728 c-1 -7 -2 -20 -3 -29 -2 -29 -189 -316 -205 -315 -27 2
-22 -29 8 -46 26 -14 31 -15 42 -1 9 10 10 16 2 21 -17 10 172 306 197 310 11
2 20 8 20 13 0 5 0 12 1 15 0 4 -13 16 -30 26 -24 15 -31 17 -32 6z"/>
<path d="M4690 1591 c0 -11 4 -21 8 -23 5 -1 28 -77 51 -168 23 -91 47 -182
52 -202 6 -22 16 -38 24 -38 8 0 18 16 24 38 5 20 29 111 52 202 23 91 47 168
53 172 5 3 11 14 12 22 2 12 -7 16 -37 16 -32 0 -39 -4 -39 -19 0 -11 5 -21
11 -23 7 -2 -4 -60 -31 -166 -24 -89 -44 -161 -45 -160 -2 2 -22 75 -45 163
-27 104 -38 161 -31 163 6 2 11 12 11 23 0 15 -7 19 -35 19 -28 0 -35 -4 -35
-19z"/>
<path d="M4980 1590 c0 -11 5 -20 10 -20 6 0 10 -68 10 -185 0 -117 -4 -185
-10 -185 -5 0 -10 -7 -10 -15 0 -11 11 -15 40 -15 28 0 40 4 40 14 0 8 -5 16
-10 18 -17 5 -19 368 -2 368 6 0 12 9 12 20 0 17 -7 20 -40 20 -33 0 -40 -3
-40 -20z"/>
<path d="M2883 1522 c-48 -43 -51 -49 -38 -66 13 -17 17 -16 70 29 53 46 55
49 39 66 -10 11 -18 19 -18 19 -1 0 -25 -22 -53 -48z"/>
<path d="M6793 1551 c-11 -17 -6 -25 39 -66 46 -42 53 -45 67 -31 14 14 10 21
-34 66 -27 27 -52 50 -55 50 -3 0 -11 -9 -17 -19z"/>
<path d="M3071 1319 c-42 -47 -43 -50 -25 -64 18 -14 23 -11 67 36 38 41 45
54 36 65 -18 22 -31 16 -78 -37z"/>
<path d="M6600 1355 c-11 -14 -7 -23 31 -63 24 -26 45 -48 46 -51 4 -6 33 20
33 29 0 10 -80 100 -90 100 -4 0 -13 -7 -20 -15z"/>
<path d="M3290 1144 c-23 -30 -40 -56 -38 -58 1 -1 10 -7 19 -14 14 -11 22 -4
58 43 34 45 40 59 31 71 -19 22 -24 18 -70 -42z"/>
<path d="M6393 1193 c-7 -2 -13 -9 -13 -15 0 -8 39 -68 77 -117 2 -3 11 3 20
12 16 15 14 20 -21 72 -21 30 -41 55 -45 54 -3 0 -12 -3 -18 -6z"/>
<path d="M3553 1146 c-163 -52 -269 -232 -234 -397 7 -30 18 -64 26 -76 14
-22 16 -22 67 -7 121 36 190 93 236 194 21 45 26 70 25 135 0 44 -7 98 -14
120 -16 46 -38 52 -106 31z"/>
<path d="M6071 1124 c-8 -16 -16 -65 -18 -109 -6 -101 18 -172 83 -244 51 -57
146 -108 208 -113 39 -3 40 -2 54 42 21 70 19 187 -6 243 -43 98 -168 193
-267 205 -37 4 -42 1 -54 -24z"/>
<path d="M3771 867 c-25 -55 -27 -63 -13 -74 9 -7 19 -13 22 -13 7 0 60 118
60 131 0 4 -9 9 -20 12 -17 4 -25 -5 -49 -56z"/>
<path d="M5918 919 c-16 -9 -14 -15 13 -72 31 -67 36 -72 58 -58 12 8 10 20
-13 75 -30 70 -31 71 -58 55z"/>
<path d="M4030 765 c-19 -56 -20 -69 -9 -76 8 -5 18 -7 23 -6 13 4 57 137 46
137 -5 0 -15 3 -23 6 -11 4 -21 -12 -37 -61z"/>
<path d="M4813 788 c-23 -24 -54 -70 -70 -103 -23 -50 -27 -73 -27 -141 0 -72
4 -90 32 -147 21 -41 50 -82 80 -107 l47 -42 56 60 c134 142 132 335 -6 478
-23 24 -48 44 -56 44 -8 0 -34 -19 -56 -42z"/>
<path d="M5667 823 c-10 -3 -16 -10 -14 -16 2 -7 13 -38 23 -70 15 -50 20 -56
38 -51 12 4 22 7 23 8 5 4 -41 136 -47 135 -3 -1 -13 -3 -23 -6z"/>
<path d="M4300 703 c-17 -87 -17 -88 7 -91 16 -2 24 3 28 20 14 63 24 113 22
114 -1 1 -12 5 -24 8 -19 6 -22 2 -33 -51z"/>
<path d="M5408 753 c-21 -5 -21 -4 -6 -77 11 -57 29 -79 49 -59 11 11 -7 130
-20 136 -3 2 -14 2 -23 0z"/>
<path d="M4576 678 c-15 -94 -13 -108 11 -108 25 0 29 11 36 93 4 44 3 47 -19
47 -18 0 -24 -7 -28 -32z"/>
<path d="M5124 664 c3 -26 6 -57 6 -70 0 -19 5 -24 26 -24 26 0 27 1 20 53 -3
28 -6 60 -6 70 0 12 -8 17 -26 17 -26 0 -27 -1 -20 -46z"/>
</g>
</svg>
